<svg xmlns="http://www.w3.org/2000/svg" viewBox="0 0 460 300"><title>Sharing the red pencil</title><rect width="460" height="300" rx="18" fill="#f4ebda"/><circle cx="400" cy="40" r="28" fill="#efd7a0"/><path d="M0 238q130-35 240 0t220 0v62H0" fill="#dfe7d4"/><path d="M208 224l15 15 29-34" fill="none" stroke="#447f66" stroke-width="8" stroke-linecap="round"/><g transform="translate(135 0)"><path d="M-24 196v51m48-51v51" stroke="#6d7b70" stroke-width="15" stroke-linecap="round"/><path d="M-27 126q27-18 54 0l10 74h-74z" fill="#729f97"/><circle cy="94" r="29" fill="#d5a47d"/><path d="M-28 92q-1-41 28-36 35 0 29 38l-9-13q-23 9-38-3z" fill="#574b3e"/><circle cx="-9" cy="94" r="2.5" fill="#443f37"/><circle cx="9" cy="94" r="2.5" fill="#443f37"/><path d="M-7 107q7 6 14 0" stroke="#755548" stroke-width="2" fill="none"/><path d="M-25 139l-14 37m63-37l14 37" stroke="#d5a47d" stroke-width="13" stroke-linecap="round"/></g><g transform="translate(325 0)"><path d="M-24 196v51m48-51v51" stroke="#6d7b70" stroke-width="15" stroke-linecap="round"/><path d="M-27 126q27-18 54 0l10 74h-74z" fill="#c28059"/><circle cy="94" r="29" fill="#d5a47d"/><path d="M-28 92q-1-41 28-36 35 0 29 38l-9-13q-23 9-38-3z" fill="#574b3e"/><circle cx="-9" cy="94" r="2.5" fill="#443f37"/><circle cx="9" cy="94" r="2.5" fill="#443f37"/><path d="M-7 107q7 6 14 0" stroke="#755548" stroke-width="2" fill="none"/><path d="M-25 139l-14 37m63-37l14 37" stroke="#d5a47d" stroke-width="13" stroke-linecap="round"/></g><rect x="163" y="186" width="135" height="8" rx="4" fill="#baa178"/><path d="M175 155l90-60 14 22-90 60-23 4z" fill="#c84d44"/><path d="M166 181l9-26 14 22z" fill="#e4cba2"/></svg>