<svg xmlns="http://www.w3.org/2000/svg" viewBox="0 0 460 300"><title>Shop roles</title><rect width="460" height="300" rx="18" fill="#f4ebda"/><circle cx="400" cy="40" r="28" fill="#efd7a0"/><path d="M0 238q130-35 240 0t220 0v62H0" fill="#dfe7d4"/><ellipse cx="355" cy="261" rx="49" ry="9" fill="#d5aa57"/><path d="M355 42h60q12 0 12 12v28h-65l-7 12V54q0-12 0-12" fill="#fff7dc" stroke="#cf9d55" stroke-width="2"/><g transform="translate(105 0)"><path d="M-24 196v51m48-51v51" stroke="#6d7b70" stroke-width="15" stroke-linecap="round"/><path d="M-27 126q27-18 54 0l10 74h-74z" fill="#729f97"/><circle cy="94" r="29" fill="#d5a47d"/><path d="M-28 92q-1-41 28-36 35 0 29 38l-9-13q-23 9-38-3z" fill="#574b3e"/><circle cx="-9" cy="94" r="2.5" fill="#443f37"/><circle cx="9" cy="94" r="2.5" fill="#443f37"/><path d="M-7 107q7 6 14 0" stroke="#755548" stroke-width="2" fill="none"/><path d="M-25 139l-14 37m63-37l14 37" stroke="#d5a47d" stroke-width="13" stroke-linecap="round"/></g><g transform="translate(355 0)"><path d="M-24 196v51m48-51v51" stroke="#6d7b70" stroke-width="15" stroke-linecap="round"/><path d="M-27 126q27-18 54 0l10 74h-74z" fill="#c28059"/><circle cy="94" r="29" fill="#d5a47d"/><path d="M-28 92q-1-41 28-36 35 0 29 38l-9-13q-23 9-38-3z" fill="#574b3e"/><circle cx="-9" cy="94" r="2.5" fill="#443f37"/><circle cx="9" cy="94" r="2.5" fill="#443f37"/><path d="M-7 107q7 6 14 0" stroke="#755548" stroke-width="2" fill="none"/><path d="M-25 139l-14 37m63-37l14 37" stroke="#d5a47d" stroke-width="13" stroke-linecap="round"/></g><rect x="163" y="186" width="135" height="8" rx="4" fill="#baa178"/><path d="M179 118h101v70H179z" fill="#9ab5a4"/><path d="M170 117l15-28h91l15 28" fill="#c87551"/><path d="M185 95v21m23-21v21m23-21v21m23-21v21m23-21v21" stroke="#f9e5be" stroke-width="12"/><rect x="196" y="139" width="23" height="20" fill="#edca73"/><rect x="238" y="137" width="22" height="25" fill="#88a1bb"/></svg>