<svg xmlns="http://www.w3.org/2000/svg" viewBox="0 0 512 512" role="img" aria-labelledby="title desc">
<title id="title">لوحة الطفل للرسم والكتابة المبكرة</title><desc id="desc">قلم يرسم مساراً داخل لوحة تعليمية</desc>
<defs><linearGradient id="g" x1="0" y1="0" x2="1" y2="1"><stop offset="0" stop-color="#18a59c"/><stop offset="1" stop-color="#0a6e74"/></linearGradient></defs>
<rect x="36" y="36" width="440" height="440" rx="108" fill="url(#g)"/>
<rect x="93" y="101" width="326" height="274" rx="42" fill="#fff"/>
<path d="M126 180c56-45 94-46 135-9 38 34 72 36 123-10" fill="none" stroke="#ffcf33" stroke-width="23" stroke-linecap="round" stroke-dasharray="1 40"/>
<path d="M122 268c65-45 126-49 183-8 34 25 62 28 93 12" fill="none" stroke="#ef5350" stroke-width="18" stroke-linecap="round" opacity=".78"/>
<g transform="translate(278 250) rotate(-35)"><rect x="0" y="0" width="46" height="174" rx="18" fill="#ffd54f"/><rect x="0" y="0" width="46" height="39" rx="13" fill="#f59e0b"/><path d="M0 174h46l-23 52z" fill="#f1c9a5"/><path d="M16 211h14l-7 15z" fill="#27343a"/></g>
<path d="M118 414h276" stroke="#fff" stroke-width="16" stroke-linecap="round" opacity=".95"/>
<circle cx="143" cy="414" r="13" fill="#ffd54f"/>
</svg>
