<svg xmlns="http://www.w3.org/2000/svg" xmlns:xlink="http://www.w3.org/1999/xlink"><symbol id="cat" viewBox="0 0 800 800">

<defs><linearGradient id="g_cat" x1="0" x2="1" y1="0" y2="1"><stop offset="0%" stop-color="#e5ebff"/><stop offset="100%" stop-color="#f6e9ff"/></linearGradient></defs>
<rect width="800" height="800" rx="56" fill="url(#g_cat)"/><rect x="42" y="42" width="716" height="716" rx="46" fill="#fff" opacity=".92"/>
<rect x="104" y="110" width="592" height="520" rx="36" fill="#F7FBFB"/><g transform="translate(0 20)"><circle cx="360" cy="240" r="120" fill="#ffca7f"/><path d="M276 124l46 62-84 26z" fill="#ffca7f"/><path d="M444 124l38 88-84-26z" fill="#ffca7f"/><circle cx="316" cy="230" r="14" fill="#17343a"/><circle cx="406" cy="230" r="14" fill="#17343a"/><path d="M360 255l18 26h-36z" fill="#ef7e93"/><path d="M326 300c22 18 84 18 106 0" stroke="#17343a" stroke-width="10" fill="none" stroke-linecap="round"/><g stroke="#17343a" stroke-width="8" stroke-linecap="round"><line x1="228" y1="260" x2="296" y2="272"/><line x1="228" y1="292" x2="292" y2="292"/><line x1="492" y1="260" x2="424" y2="272"/><line x1="492" y1="292" x2="428" y2="292"/></g></g>
<rect x="210" y="665" width="380" height="72" rx="36" fill="#0F8F8A" opacity=".1"/><text x="400" y="712" text-anchor="middle" font-family="Tahoma,Arial,sans-serif" font-size="34" fill="#17424A">قطة</text>
</symbol><symbol id="dog" viewBox="0 0 800 800">

<defs><linearGradient id="g_dog" x1="0" x2="1" y1="0" y2="1"><stop offset="0%" stop-color="#e5ebff"/><stop offset="100%" stop-color="#f6e9ff"/></linearGradient></defs>
<rect width="800" height="800" rx="56" fill="url(#g_dog)"/><rect x="42" y="42" width="716" height="716" rx="46" fill="#fff" opacity=".92"/>
<rect x="104" y="110" width="592" height="520" rx="36" fill="#F7FBFB"/><g transform="translate(0 20)"><circle cx="360" cy="245" r="116" fill="#c98c5d"/><ellipse cx="263" cy="190" rx="48" ry="84" fill="#8d5c36" transform="rotate(-22 263 190)"/><ellipse cx="457" cy="190" rx="48" ry="84" fill="#8d5c36" transform="rotate(22 457 190)"/><circle cx="316" cy="232" r="13" fill="#17343a"/><circle cx="404" cy="232" r="13" fill="#17343a"/><ellipse cx="360" cy="286" rx="56" ry="42" fill="#e7c5a2"/><ellipse cx="360" cy="280" rx="18" ry="14" fill="#17343a"/><path d="M336 312c18 16 70 16 88 0" stroke="#17343a" stroke-width="10" fill="none" stroke-linecap="round"/><path d="M360 296v26" stroke="#17343a" stroke-width="10" stroke-linecap="round"/></g>
<rect x="210" y="665" width="380" height="72" rx="36" fill="#0F8F8A" opacity=".1"/><text x="400" y="712" text-anchor="middle" font-family="Tahoma,Arial,sans-serif" font-size="34" fill="#17424A">كلب</text>
</symbol><symbol id="bird" viewBox="0 0 800 800">

<defs><linearGradient id="g_bird" x1="0" x2="1" y1="0" y2="1"><stop offset="0%" stop-color="#e5ebff"/><stop offset="100%" stop-color="#f6e9ff"/></linearGradient></defs>
<rect width="800" height="800" rx="56" fill="url(#g_bird)"/><rect x="42" y="42" width="716" height="716" rx="46" fill="#fff" opacity=".92"/>
<rect x="104" y="110" width="592" height="520" rx="36" fill="#F7FBFB"/><g transform="translate(0 20)"><ellipse cx="330" cy="248" rx="132" ry="92" fill="#7ecaf3"/><circle cx="456" cy="220" r="56" fill="#91d6fb"/><circle cx="474" cy="210" r="8" fill="#17343a"/><path d="M518 224l52 18-52 18z" fill="#f9c24b"/><path d="M262 230c-34-16-50-24-86-18 16 14 30 24 48 42z" fill="#4ea9d6"/><path d="M250 296c-16 40-18 68-4 92" stroke="#d79b4b" stroke-width="12" stroke-linecap="round"/><path d="M322 306c-16 42-16 64 0 90" stroke="#d79b4b" stroke-width="12" stroke-linecap="round"/></g>
<rect x="210" y="665" width="380" height="72" rx="36" fill="#0F8F8A" opacity=".1"/><text x="400" y="712" text-anchor="middle" font-family="Tahoma,Arial,sans-serif" font-size="34" fill="#17424A">طائر</text>
</symbol><symbol id="fish" viewBox="0 0 800 800">

<defs><linearGradient id="g_fish" x1="0" x2="1" y1="0" y2="1"><stop offset="0%" stop-color="#e5ebff"/><stop offset="100%" stop-color="#f6e9ff"/></linearGradient></defs>
<rect width="800" height="800" rx="56" fill="url(#g_fish)"/><rect x="42" y="42" width="716" height="716" rx="46" fill="#fff" opacity=".92"/>
<rect x="104" y="110" width="592" height="520" rx="36" fill="#F7FBFB"/><g transform="translate(0 20)"><ellipse cx="340" cy="250" rx="150" ry="92" fill="#69d0c1"/><path d="M470 250l100-70v140z" fill="#3eb5a9"/><circle cx="274" cy="225" r="10" fill="#17343a"/><path d="M290 292c28 18 62 18 90 0" stroke="#ffffff" stroke-width="8" fill="none" stroke-linecap="round"/><path d="M288 176c18 30 18 152 0 182" stroke="#4ab8ab" stroke-width="12" fill="none"/></g>
<rect x="210" y="665" width="380" height="72" rx="36" fill="#0F8F8A" opacity=".1"/><text x="400" y="712" text-anchor="middle" font-family="Tahoma,Arial,sans-serif" font-size="34" fill="#17424A">سمكة</text>
</symbol><symbol id="rabbit" viewBox="0 0 800 800">

<defs><linearGradient id="g_rabbit" x1="0" x2="1" y1="0" y2="1"><stop offset="0%" stop-color="#e5ebff"/><stop offset="100%" stop-color="#f6e9ff"/></linearGradient></defs>
<rect width="800" height="800" rx="56" fill="url(#g_rabbit)"/><rect x="42" y="42" width="716" height="716" rx="46" fill="#fff" opacity=".92"/>
<rect x="104" y="110" width="592" height="520" rx="36" fill="#F7FBFB"/><g transform="translate(0 20)"><ellipse cx="360" cy="278" rx="118" ry="108" fill="#f2f4f7"/><ellipse cx="304" cy="116" rx="38" ry="104" fill="#f2f4f7" transform="rotate(-10 304 116)"/><ellipse cx="416" cy="116" rx="38" ry="104" fill="#f2f4f7" transform="rotate(10 416 116)"/><ellipse cx="304" cy="116" rx="16" ry="72" fill="#ffc8d2" transform="rotate(-10 304 116)"/><ellipse cx="416" cy="116" rx="16" ry="72" fill="#ffc8d2" transform="rotate(10 416 116)"/><circle cx="322" cy="258" r="12" fill="#17343a"/><circle cx="398" cy="258" r="12" fill="#17343a"/><circle cx="360" cy="292" r="14" fill="#ef8aa3"/><path d="M338 322c18 18 46 18 64 0" stroke="#17343a" stroke-width="9" fill="none" stroke-linecap="round"/></g>
<rect x="210" y="665" width="380" height="72" rx="36" fill="#0F8F8A" opacity=".1"/><text x="400" y="712" text-anchor="middle" font-family="Tahoma,Arial,sans-serif" font-size="34" fill="#17424A">أرنب</text>
</symbol><symbol id="horse" viewBox="0 0 800 800">

<defs><linearGradient id="g_horse" x1="0" x2="1" y1="0" y2="1"><stop offset="0%" stop-color="#e5ebff"/><stop offset="100%" stop-color="#f6e9ff"/></linearGradient></defs>
<rect width="800" height="800" rx="56" fill="url(#g_horse)"/><rect x="42" y="42" width="716" height="716" rx="46" fill="#fff" opacity=".92"/>
<rect x="104" y="110" width="592" height="520" rx="36" fill="#F7FBFB"/><g transform="translate(0 20)"><path d="M230 366c14-92 44-174 100-224 76-66 194-36 186 46-4 38-28 72-68 90v88h-218z" fill="#9b673a"/><path d="M426 154l72-74 20 108z" fill="#81512d"/><circle cx="382" cy="172" r="10" fill="#17343a"/><path d="M330 208c42 30 112 22 146-6" stroke="#17343a" stroke-width="9" fill="none" stroke-linecap="round"/><rect x="220" y="366" width="228" height="30" rx="15" fill="#6d4829"/><line x1="260" y1="396" x2="248" y2="468" stroke="#17343a" stroke-width="12"/><line x1="410" y1="396" x2="422" y2="468" stroke="#17343a" stroke-width="12"/></g>
<rect x="210" y="665" width="380" height="72" rx="36" fill="#0F8F8A" opacity=".1"/><text x="400" y="712" text-anchor="middle" font-family="Tahoma,Arial,sans-serif" font-size="34" fill="#17424A">حصان</text>
</symbol></svg>